<svg xmlns="http://www.w3.org/2000/svg" xmlns:xlink="http://www.w3.org/1999/xlink"><defs><clipPath id="logo-a"><path fill="#fff" d="M0 0h44v28.735H0z"/></clipPath></defs><symbol id="icon-beamed-note" viewBox="0 0 20 20"><path d="m17 1-.002 13c0 1.243-1.301 3-3.748 3-1.243 0-2.25-.653-2.25-1.875 0-1.589 1.445-2.55 3-2.55.432 0 .754.059 1 .123V5.364L8 6.637V16h-.002c0 1.243-1.301 3-3.748 3C3.007 19 2 18.347 2 17.125c0-1.589 1.445-2.55 3-2.55.432 0 .754.059 1 .123V3l11-2z"/></symbol><symbol id="icon-bell" viewBox="0 0 20 20"><path d="M14.65 8.512c-2.28-4.907-3.466-6.771-7.191-6.693-1.327.027-1.009-.962-2.021-.587-1.01.375-.143.924-1.177 1.773-2.902 2.383-2.635 4.587-1.289 9.84.567 2.213-1.367 2.321-.602 4.465.559 1.564 4.679 2.219 9.025.607 4.347-1.613 7.086-4.814 6.527-6.378-.765-2.145-2.311-.961-3.272-3.027zm-3.726 8.083c-3.882 1.44-7.072.594-7.207.217-.232-.65 1.253-2.816 5.691-4.463 4.438-1.647 6.915-1.036 7.174-.311.153.429-1.775 3.116-5.658 4.557zm-1.248-3.494c-2.029.753-3.439 1.614-4.353 2.389.643.584 1.847.726 3.046.281 1.527-.565 2.466-1.866 2.095-2.904l-.016-.036c-.251.082-.508.171-.772.27z"/></symbol><symbol id="icon-cart"><path d="M18.75 16.5a2.26 2.26 0 0 1 1.594.656 2.26 2.26 0 0 1 0 3.188 2.26 2.26 0 0 1-3.188 0 2.26 2.26 0 0 1-.656-1.594c0-.242.043-.492.129-.75H10.37c.086.258.129.508.129.75a2.259 2.259 0 0 1-.656 1.594 2.258 2.258 0 0 1-3.188 0 2.259 2.259 0 0 1-.316-2.79c.226-.366.539-.644.937-.831L2.215 1.5H0V0h3.293l.996 3H24l-3.492 10.5H7.793l.996 3h9.961ZM4.793 4.5 7.289 12h12.129l2.496-7.5H4.793ZM9 18.75a.72.72 0 0 0-.223-.527A.72.72 0 0 0 8.25 18a.72.72 0 0 0-.527.223.72.72 0 0 0-.223.527.72.72 0 0 0 .223.527.72.72 0 0 0 .527.223.72.72 0 0 0 .527-.223A.72.72 0 0 0 9 18.75Zm9.75.75a.72.72 0 0 0 .527-.223.72.72 0 0 0 .223-.527.72.72 0 0 0-.223-.527.72.72 0 0 0-.527-.223.72.72 0 0 0-.527.223.72.72 0 0 0-.223.527.72.72 0 0 0 .223.527.72.72 0 0 0 .527.223Z"/></symbol><symbol id="icon-chat" viewBox="0 0 20 20"><path d="M5.8 12.2V6H2C.9 6 0 6.9 0 8v6c0 1.1.9 2 2 2h1v3l3-3h5c1.1 0 2-.9 2-2v-1.82a.943.943 0 0 1-.2.021h-7V12.2zM18 1H9c-1.1 0-2 .9-2 2v8h7l3 3v-3h1c1.1 0 2-.899 2-2V3c0-1.1-.9-2-2-2z"/></symbol><symbol id="icon-del"><path d="m10.756 9 7.944 7.963L17.664 18l-7.956-7.951L1.753 18 .717 16.963 8.66 9 .717 1.037 1.753 0l7.955 7.951L17.664 0 18.7 1.037 10.756 9Z" fill="#CFCFCF"/></symbol><symbol id="icon-logo"><path d="M45.266 27.148c0-.282.082-.516.246-.704.17-.187.422-.28.756-.28s.585.093.755.28a.988.988 0 0 1 .264.704c0 .269-.088.495-.264.676-.17.182-.421.273-.755.273s-.586-.091-.756-.273a.972.972 0 0 1-.246-.677Zm10.248-1.67c0-.44-.167-.78-.501-1.02-.328-.246-.906-.457-1.732-.633-.82-.176-1.473-.386-1.96-.633-.48-.246-.838-.539-1.072-.878-.229-.34-.343-.745-.343-1.213 0-.78.328-1.439.985-1.978.662-.539 1.506-.809 2.53-.809 1.079 0 1.952.279 2.62.835.674.557 1.01 1.269 1.01 2.136h-1.634c0-.445-.19-.829-.571-1.151-.375-.323-.85-.484-1.424-.484-.592 0-1.055.13-1.389.387a1.217 1.217 0 0 0-.5 1.01c0 .393.154.69.465.889.31.199.87.39 1.679.57.814.183 1.473.4 1.977.651.504.252.876.557 1.116.914.247.352.37.782.37 1.292 0 .85-.34 1.532-1.02 2.048-.68.51-1.561.765-2.645.765-.762 0-1.436-.135-2.022-.404-.586-.27-1.046-.645-1.38-1.125a2.76 2.76 0 0 1-.492-1.574h1.626c.03.545.246.979.65 1.301.41.316.95.475 1.618.475.615 0 1.107-.123 1.476-.37.375-.252.563-.585.563-1.002Zm5.37-5.836c.72-.885 1.658-1.328 2.812-1.328 2.01 0 3.024 1.134 3.041 3.402V28h-1.626v-6.293c-.005-.686-.164-1.192-.474-1.52-.305-.329-.782-.493-1.433-.493-.527 0-.99.141-1.389.422-.398.282-.709.65-.931 1.108V28h-1.626V14.5h1.626v5.142Zm7.857 3.515c0-.931.182-1.77.545-2.513.37-.745.879-1.319 1.53-1.723.656-.404 1.403-.607 2.24-.607 1.296 0 2.341.449 3.138 1.345.803.897 1.204 2.089 1.204 3.577v.115c0 .925-.178 1.757-.536 2.496a4.005 4.005 0 0 1-1.52 1.713c-.656.41-1.412.616-2.268.616-1.289 0-2.335-.448-3.138-1.345-.796-.896-1.195-2.083-1.195-3.56v-.114Zm1.635.194c0 1.054.243 1.901.73 2.54.492.638 1.148.958 1.968.958.826 0 1.483-.323 1.969-.967.486-.65.73-1.559.73-2.725 0-1.043-.25-1.887-.748-2.531-.492-.65-1.148-.976-1.968-.976-.803 0-1.45.32-1.943.958-.492.64-.738 1.553-.738 2.743Zm17.095 0c0 1.447-.331 2.613-.993 3.498-.663.884-1.56 1.327-2.69 1.327-1.154 0-2.062-.366-2.724-1.099v4.58h-1.626V18.49h1.485l.079 1.055c.662-.82 1.582-1.23 2.76-1.23 1.142 0 2.045.43 2.707 1.291.668.862 1.002 2.06 1.002 3.595v.15Zm-1.626-.185c0-1.072-.229-1.919-.686-2.54-.457-.621-1.084-.932-1.88-.932-.985 0-1.723.437-2.215 1.31v4.544c.486.867 1.23 1.3 2.232 1.3.78 0 1.397-.307 1.854-.922.463-.621.695-1.541.695-2.76Z"/><g clip-path="url(#logo-a)"><path d="M34.107.79H23.492v27.384h6.61v-8.613h4.005c6.21 0 9.816-3.948 9.816-9.385 0-5.437-3.605-9.386-9.816-9.386Zm-.686 12.962h-3.319V6.6h3.32c2.403 0 3.776 1.316 3.776 3.577 0 2.26-1.373 3.576-3.777 3.576ZM12.218 11.692c-2.031-.573-3.32-1-3.95-1.401-.513-.343-.828-.831-.828-1.403 0-1.288 1.03-2.26 3.347-2.26 2.203 0 3.377.944 3.377 2.345H20.8c0-5.122-4.291-8.527-9.7-8.527-3.203 0-5.665.688-7.61 2.347C1.773 4.253.743 6.34.743 8.945c0 2.261.686 3.892 1.745 5.036 1.001 1.087 3.033 2.375 6.209 3.234 2.29.63 3.921 1.116 4.665 1.602.772.486.973.916.973 1.488 0 1.23-1.23 2.06-3.692 2.06-2.29 0-3.52-.859-3.605-2.347H.314c0 5.18 4.235 8.498 10.33 8.498 5.923 0 10.386-3.663 10.386-8.327 0-1.717-.314-3.204-1.545-4.72-1.087-1.373-3.26-2.603-7.267-3.777Z"/></g></symbol><symbol id="icon-min"><path d="M10.888 0c.916 0 1.8.118 2.654.354a9.694 9.694 0 0 1 2.383 1.01c.735.438 1.408.959 2.019 1.563a9.59 9.59 0 0 1 1.561 2.02c.43.744.767 1.543 1.01 2.397.242.854.364 1.74.364 2.656 0 .917-.118 1.802-.354 2.656a9.711 9.711 0 0 1-1.01 2.386 10.48 10.48 0 0 1-1.56 2.02 9.59 9.59 0 0 1-2.02 1.563c-.742.43-1.54.767-2.393 1.01a9.64 9.64 0 0 1-2.654.365c-.916 0-1.8-.118-2.654-.354a9.692 9.692 0 0 1-2.383-1.01 10.47 10.47 0 0 1-2.02-1.563 9.59 9.59 0 0 1-1.56-2.02 10.535 10.535 0 0 1-1.01-2.386A9.632 9.632 0 0 1 .897 10c0-.917.118-1.802.354-2.656a9.711 9.711 0 0 1 1.01-2.386 10.48 10.48 0 0 1 1.56-2.02 9.584 9.584 0 0 1 2.02-1.563C6.582.945 7.376.608 8.223.365A9.607 9.607 0 0 1 10.888 0Zm0 18.667c.798 0 1.564-.101 2.3-.302a8.405 8.405 0 0 0 2.07-.875 8.792 8.792 0 0 0 1.75-1.355 8.79 8.79 0 0 0 1.352-1.75 8.418 8.418 0 0 0 .874-2.072A9.033 9.033 0 0 0 19.547 10c0-.799-.1-1.566-.302-2.302a8.422 8.422 0 0 0-.874-2.073 8.787 8.787 0 0 0-1.353-1.75 8.783 8.783 0 0 0-1.749-1.354 8.403 8.403 0 0 0-2.07-.875 9.007 9.007 0 0 0-2.311-.313c-.798 0-1.565.101-2.3.302a8.402 8.402 0 0 0-2.071.875 8.786 8.786 0 0 0-1.749 1.355 8.793 8.793 0 0 0-1.352 1.75 8.418 8.418 0 0 0-.875 2.072A9.03 9.03 0 0 0 2.23 10c0 .799.1 1.566.302 2.302.201.736.493 1.427.874 2.073.382.646.833 1.23 1.353 1.75a8.79 8.79 0 0 0 1.748 1.354 8.405 8.405 0 0 0 2.072.875 9.008 9.008 0 0 0 2.31.313ZM4.893 9.333h11.99v1.334H4.892V9.333Z"/></symbol><symbol id="icon-paypal"><path d="M31.677 4.704h-4.688a.645.645 0 0 0-.424.159.665.665 0 0 0-.22.4L24.45 17.486a.404.404 0 0 0 .09.32.394.394 0 0 0 .297.138h2.238a.645.645 0 0 0 .423-.159.665.665 0 0 0 .22-.4l.512-3.297a.665.665 0 0 1 .22-.4.645.645 0 0 1 .423-.16h1.484c3.088 0 4.87-1.52 5.336-4.53.21-1.317.009-2.352-.598-3.077-.666-.796-1.848-1.217-3.417-1.217Zm.54 4.464c-.256 1.71-1.54 1.71-2.784 1.71h-.707l.496-3.194a.399.399 0 0 1 .132-.24.387.387 0 0 1 .254-.095h.324c.847 0 1.646 0 2.058.49.246.293.322.728.228 1.329Zm13.473-.055h-2.245a.387.387 0 0 0-.254.095.4.4 0 0 0-.132.24l-.099.639-.157-.232c-.486-.717-1.57-.957-2.651-.957-2.481 0-4.6 1.91-5.013 4.59-.214 1.337.09 2.616.837 3.507.684.82 1.663 1.161 2.827 1.161 1.999 0 3.108-1.307 3.108-1.307l-.1.634a.405.405 0 0 0 .088.32.393.393 0 0 0 .297.14h2.022a.645.645 0 0 0 .423-.158.665.665 0 0 0 .22-.401l1.214-7.813a.401.401 0 0 0-.222-.422.384.384 0 0 0-.163-.036Zm-3.129 4.442c-.217 1.304-1.235 2.18-2.533 2.18-.652 0-1.173-.213-1.507-.616-.332-.4-.458-.97-.353-1.603.203-1.293 1.238-2.197 2.516-2.197.638 0 1.156.215 1.497.621.342.411.478.984.38 1.615Zm15.085-4.442h-2.255a.645.645 0 0 0-.54.29l-3.111 4.66-1.32-4.478a.664.664 0 0 0-.235-.341.646.646 0 0 0-.39-.131H47.58a.386.386 0 0 0-.319.166.402.402 0 0 0-.052.36l2.485 7.414-2.336 3.353a.401.401 0 0 0 .115.57.385.385 0 0 0 .203.057h2.254a.643.643 0 0 0 .535-.284l7.503-11.012a.402.402 0 0 0-.118-.567.386.386 0 0 0-.203-.057Z" fill="#253B80"/><path d="M65.115 4.704h-4.688a.645.645 0 0 0-.423.159.665.665 0 0 0-.22.4l-1.896 12.223a.404.404 0 0 0 .088.32.39.39 0 0 0 .297.138h2.406c.109 0 .213-.04.296-.111a.465.465 0 0 0 .154-.28l.538-3.465a.665.665 0 0 1 .22-.4.645.645 0 0 1 .423-.16h1.483c3.089 0 4.87-1.52 5.337-4.53.21-1.317.008-2.352-.599-3.077-.665-.796-1.847-1.217-3.416-1.217Zm.541 4.464c-.255 1.71-1.54 1.71-2.784 1.71h-.707l.497-3.194a.398.398 0 0 1 .132-.24.386.386 0 0 1 .253-.095h.325c.846 0 1.645 0 2.057.49.246.293.321.728.227 1.329Zm13.472-.055h-2.243a.385.385 0 0 0-.254.095.397.397 0 0 0-.132.24l-.1.638-.157-.23c-.486-.718-1.569-.958-2.65-.958-2.481 0-4.6 1.91-5.012 4.59-.214 1.337.09 2.616.835 3.507.686.82 1.663 1.161 2.828 1.161 1.999 0 3.107-1.307 3.107-1.307l-.1.634a.401.401 0 0 0 .223.424.386.386 0 0 0 .164.037h2.022a.645.645 0 0 0 .423-.16.665.665 0 0 0 .22-.4l1.213-7.813a.405.405 0 0 0-.09-.32.393.393 0 0 0-.297-.138Zm-3.13 4.442c-.214 1.304-1.234 2.18-2.532 2.18-.65 0-1.173-.213-1.507-.616-.332-.4-.457-.97-.353-1.603.204-1.293 1.238-2.197 2.516-2.197.638 0 1.156.215 1.497.621.344.411.48.984.38 1.615Zm5.777-8.516L79.85 17.486a.404.404 0 0 0 .088.32.39.39 0 0 0 .297.138h1.934a.654.654 0 0 0 .644-.56l1.897-12.222a.404.404 0 0 0-.088-.32.391.391 0 0 0-.297-.139H82.16a.388.388 0 0 0-.253.096.4.4 0 0 0-.132.24Z" fill="#179BD7"/><path d="m4.98 20.32.36-2.316-.8-.019H.728L3.377.9a.221.221 0 0 1 .074-.134.214.214 0 0 1 .142-.052h6.43c2.134 0 3.607.451 4.376 1.343.36.418.59.855.702 1.336.116.504.118 1.107.004 1.843l-.008.053v.471l.36.208c.276.142.523.334.73.566.31.358.509.812.593 1.35.087.555.058 1.214-.084 1.96-.165.86-.43 1.607-.79 2.22a4.538 4.538 0 0 1-1.251 1.393 5.034 5.034 0 0 1-1.685.773c-.621.165-1.33.247-2.106.247h-.5c-.358 0-.706.131-.978.366a1.547 1.547 0 0 0-.51.926l-.038.208-.633 4.081-.03.15c-.007.047-.02.071-.039.087a.106.106 0 0 1-.066.024H4.98Z" fill="#253B80"/><path d="M15.799 5.344c-.02.124-.041.252-.066.383-.848 4.426-3.749 5.956-7.454 5.956H6.393a.921.921 0 0 0-.906.789L4.521 18.7l-.273 1.765a.499.499 0 0 0 .11.395.484.484 0 0 0 .366.172H8.07a.81.81 0 0 0 .795-.69l.033-.172.63-4.065.04-.223a.809.809 0 0 1 .796-.691h.5c3.242 0 5.78-1.339 6.521-5.211.31-1.618.15-2.968-.67-3.918a3.206 3.206 0 0 0-.916-.718Z" fill="#179BD7"/><path d="M14.912 4.984a6.596 6.596 0 0 0-.825-.186 10.308 10.308 0 0 0-1.663-.123h-5.04a.796.796 0 0 0-.522.196.82.82 0 0 0-.272.495L5.518 12.27l-.03.202a.935.935 0 0 1 .308-.565.907.907 0 0 1 .597-.224h1.886c3.705 0 6.606-1.53 7.454-5.956.026-.131.047-.259.066-.383a4.477 4.477 0 0 0-.887-.36Z" fill="#222D65"/><path d="M6.59 5.366a.818.818 0 0 1 .271-.495.794.794 0 0 1 .524-.196h5.04c.596 0 1.154.04 1.662.124.345.055.684.137 1.016.246.25.084.482.184.697.299.252-1.636-.002-2.75-.872-3.758C13.968.476 12.238 0 10.023 0h-6.43a.924.924 0 0 0-.908.79L.007 18.05a.571.571 0 0 0 .125.453.555.555 0 0 0 .42.197h3.97l.996-6.43L6.59 5.366Z" fill="#253B80"/></symbol><symbol id="icon-plus"><path d="M10.83 0c.918 0 1.802.117 2.654.352a9.443 9.443 0 0 1 2.38 1.015c.736.443 1.41.964 2.02 1.563a9.52 9.52 0 0 1 1.571 2.021 10.077 10.077 0 0 1 1.015 7.705 9.46 9.46 0 0 1-1.015 2.383c-.442.736-.962 1.41-1.56 2.022a9.512 9.512 0 0 1-2.02 1.572 10.057 10.057 0 0 1-7.698 1.015 9.833 9.833 0 0 1-2.39-1.005 10.038 10.038 0 0 1-2.02-1.563 9.925 9.925 0 0 1-1.561-2.031A10.118 10.118 0 0 1 1.2 12.666a10.149 10.149 0 0 1-.01-5.322A9.46 9.46 0 0 1 2.206 4.96c.442-.736.962-1.41 1.56-2.022a9.513 9.513 0 0 1 2.02-1.572A10.056 10.056 0 0 1 10.831 0Zm0 18.75c.807 0 1.581-.104 2.323-.313a8.974 8.974 0 0 0 2.088-.878 8.382 8.382 0 0 0 1.765-1.368 9.225 9.225 0 0 0 1.366-1.767 8.53 8.53 0 0 0 .888-2.09A8.675 8.675 0 0 0 19.573 10c0-.807-.105-1.582-.313-2.324a8.998 8.998 0 0 0-.878-2.09 8.39 8.39 0 0 0-1.366-1.768 9.222 9.222 0 0 0-1.766-1.367 8.515 8.515 0 0 0-2.088-.889 8.65 8.65 0 0 0-2.332-.312c-.806 0-1.58.104-2.322.313a8.976 8.976 0 0 0-2.088.878c-.65.378-1.239.834-1.766 1.368A9.229 9.229 0 0 0 3.29 5.576a8.53 8.53 0 0 0-.888 2.09A8.673 8.673 0 0 0 2.088 10c0 .807.105 1.582.313 2.324.208.742.5 1.439.878 2.09a8.728 8.728 0 0 0 3.132 3.144 8.745 8.745 0 0 0 4.42 1.192Zm.625-9.385h4.37v1.25h-4.37V15h-1.249v-4.385H5.835v-1.25h4.371V5h1.249v4.365Z"/></symbol><symbol id="icon-search"><path d="M15.75 0a8.15 8.15 0 0 1 4.16 1.125c.61.36 1.164.79 1.664 1.29s.934 1.058 1.301 1.675c.367.617.645 1.273.832 1.969.188.695.285 1.425.293 2.191a8.15 8.15 0 0 1-1.125 4.16c-.36.61-.79 1.164-1.29 1.664s-1.058.934-1.675 1.301a7.809 7.809 0 0 1-1.969.832 8.726 8.726 0 0 1-2.191.293c-.977 0-1.91-.164-2.8-.492a8.606 8.606 0 0 1-2.473-1.418l-9.2 9.187A.72.72 0 0 1 .75 24a.72.72 0 0 1-.527-.223A.72.72 0 0 1 0 23.25a.72.72 0 0 1 .223-.527l9.187-9.2a8.445 8.445 0 0 1-1.418-2.46A8.07 8.07 0 0 1 7.5 8.25a8.15 8.15 0 0 1 1.125-4.16c.36-.61.79-1.164 1.29-1.664s1.058-.934 1.675-1.301a7.81 7.81 0 0 1 1.969-.832A8.727 8.727 0 0 1 15.75 0Zm0 15a6.676 6.676 0 0 0 4.77-1.98 6.95 6.95 0 0 0 1.44-2.145 6.68 6.68 0 0 0 .54-2.625 6.677 6.677 0 0 0-1.98-4.77 6.952 6.952 0 0 0-2.145-1.44 6.681 6.681 0 0 0-2.625-.54 6.676 6.676 0 0 0-4.77 1.98 6.952 6.952 0 0 0-1.44 2.145A6.681 6.681 0 0 0 9 8.25a6.676 6.676 0 0 0 1.98 4.77 6.95 6.95 0 0 0 2.145 1.44 6.68 6.68 0 0 0 2.625.54Z"/></symbol></svg>