<svg xmlns="http://www.w3.org/2000/svg">
<path d="M45.2656 27.1475C45.2656 26.8662 45.3477 26.6318 45.5117 26.4443C45.6816 26.2568 45.9336 26.1631 46.2676 26.1631C46.6016 26.1631 46.8535 26.2568 47.0234 26.4443C47.1992 26.6318 47.2871 26.8662 47.2871 27.1475C47.2871 27.417 47.1992 27.6426 47.0234 27.8242C46.8535 28.0059 46.6016 28.0967 46.2676 28.0967C45.9336 28.0967 45.6816 28.0059 45.5117 27.8242C45.3477 27.6426 45.2656 27.417 45.2656 27.1475ZM55.5137 25.4775C55.5137 25.0381 55.3467 24.6982 55.0127 24.458C54.6846 24.2119 54.1074 24.001 53.2812 23.8252C52.4609 23.6494 51.8076 23.4385 51.3213 23.1924C50.8408 22.9463 50.4834 22.6533 50.249 22.3135C50.0205 21.9736 49.9062 21.5693 49.9062 21.1006C49.9062 20.3213 50.2344 19.6621 50.8906 19.123C51.5527 18.584 52.3965 18.3145 53.4219 18.3145C54.5 18.3145 55.373 18.5928 56.041 19.1494C56.7148 19.7061 57.0518 20.418 57.0518 21.2852H55.417C55.417 20.8398 55.2266 20.4561 54.8457 20.1338C54.4707 19.8115 53.9961 19.6504 53.4219 19.6504C52.8301 19.6504 52.3672 19.7793 52.0332 20.0371C51.6992 20.2949 51.5322 20.6318 51.5322 21.0479C51.5322 21.4404 51.6875 21.7363 51.998 21.9355C52.3086 22.1348 52.8682 22.3252 53.6768 22.5068C54.4912 22.6885 55.1504 22.9053 55.6543 23.1572C56.1582 23.4092 56.5303 23.7139 56.7705 24.0713C57.0166 24.4229 57.1396 24.8535 57.1396 25.3633C57.1396 26.2129 56.7998 26.8955 56.1201 27.4111C55.4404 27.9209 54.5586 28.1758 53.4746 28.1758C52.7129 28.1758 52.0391 28.041 51.4531 27.7715C50.8672 27.502 50.4072 27.127 50.0732 26.6465C49.7451 26.1602 49.5811 25.6357 49.5811 25.0732H51.207C51.2363 25.6182 51.4531 26.0518 51.8574 26.374C52.2676 26.6904 52.8066 26.8486 53.4746 26.8486C54.0898 26.8486 54.582 26.7256 54.9512 26.4795C55.3262 26.2275 55.5137 25.8936 55.5137 25.4775ZM60.8838 19.6416C61.6045 18.7568 62.542 18.3145 63.6963 18.3145C65.7061 18.3145 66.7197 19.4482 66.7373 21.7158V28H65.1113V21.707C65.1055 21.0215 64.9473 20.5146 64.6367 20.1865C64.332 19.8584 63.8545 19.6943 63.2041 19.6943C62.6768 19.6943 62.2139 19.835 61.8154 20.1162C61.417 20.3975 61.1064 20.7666 60.8838 21.2236V28H59.2578V14.5H60.8838V19.6416ZM68.7412 23.1572C68.7412 22.2256 68.9229 21.3877 69.2861 20.6436C69.6553 19.8994 70.165 19.3252 70.8154 18.9209C71.4717 18.5166 72.2188 18.3145 73.0566 18.3145C74.3516 18.3145 75.3975 18.7627 76.1943 19.6592C76.9971 20.5557 77.3984 21.748 77.3984 23.2363V23.3506C77.3984 24.2764 77.2197 25.1084 76.8623 25.8467C76.5107 26.5791 76.0039 27.1504 75.3418 27.5605C74.6855 27.9707 73.9297 28.1758 73.0742 28.1758C71.7852 28.1758 70.7393 27.7275 69.9365 26.8311C69.1396 25.9346 68.7412 24.748 68.7412 23.2715V23.1572ZM70.376 23.3506C70.376 24.4053 70.6191 25.252 71.1055 25.8906C71.5977 26.5293 72.2539 26.8486 73.0742 26.8486C73.9004 26.8486 74.5566 26.5264 75.043 25.8818C75.5293 25.2314 75.7725 24.3232 75.7725 23.1572C75.7725 22.1143 75.5234 21.2705 75.0254 20.626C74.5332 19.9756 73.877 19.6504 73.0566 19.6504C72.2539 19.6504 71.6064 19.9697 71.1143 20.6084C70.6221 21.2471 70.376 22.1611 70.376 23.3506ZM87.4707 23.3506C87.4707 24.7979 87.1396 25.9639 86.4775 26.8486C85.8154 27.7334 84.9189 28.1758 83.7881 28.1758C82.6338 28.1758 81.7256 27.8096 81.0635 27.0771V31.6562H79.4375V18.4902H80.9229L81.002 19.5449C81.6641 18.7246 82.584 18.3145 83.7617 18.3145C84.9043 18.3145 85.8066 18.7451 86.4688 19.6064C87.1367 20.4678 87.4707 21.666 87.4707 23.2012V23.3506ZM85.8447 23.166C85.8447 22.0938 85.6162 21.2471 85.1592 20.626C84.7021 20.0049 84.0752 19.6943 83.2783 19.6943C82.2939 19.6943 81.5557 20.1309 81.0635 21.0039V25.5479C81.5498 26.415 82.2939 26.8486 83.2959 26.8486C84.0752 26.8486 84.6934 26.541 85.1504 25.9258C85.6133 25.3047 85.8447 24.3848 85.8447 23.166Z" fill="black"/>
<g clip-path="url(#clip0_89_1)">
<path d="M34.1072 0.790192H23.4924V28.1744H30.1023V19.5611H34.1072C40.3175 19.5611 43.9228 15.6128 43.9228 10.1757C43.9228 4.73852 40.3175 0.790192 34.1072 0.790192ZM33.4212 13.7522H30.1023V6.59909H33.4212C35.825 6.59909 37.198 7.9155 37.198 10.1757C37.198 12.4367 35.825 13.7522 33.4212 13.7522Z" fill="black"/>
<path d="M12.2177 11.6923C10.1865 11.1194 8.89882 10.6911 8.26845 10.2906C7.75482 9.9476 7.43964 9.46001 7.43964 8.88801C7.43964 7.60033 8.4696 6.62784 10.7872 6.62784C12.9899 6.62784 14.1636 7.5716 14.1636 8.97331H20.8013C20.8013 3.85135 16.5099 0.446289 11.1015 0.446289C7.8976 0.446289 5.43629 1.13413 3.49041 2.79266C1.77351 4.25274 0.743556 6.34139 0.743556 8.94547C0.743556 11.2065 1.43049 12.8372 2.48919 13.9812C3.49041 15.0678 5.5216 16.3563 8.69768 17.2148C10.9884 17.8443 12.6191 18.3309 13.3626 18.8167C14.1348 19.3034 14.336 19.7327 14.336 20.3047C14.336 21.5349 13.1058 22.3646 10.6436 22.3646C8.35376 22.3646 7.12445 21.5061 7.03915 20.0182H0.314331C0.314331 25.1976 4.54911 28.5156 10.6436 28.5156C16.5674 28.5156 21.0303 24.8528 21.0303 20.1888C21.0303 18.4719 20.716 16.9849 19.4849 15.4683C18.3983 14.0962 16.2244 12.866 12.2177 11.6923Z" fill="black"/>
</g>
<defs>
<clipPath id="clip0_89_1">
<rect width="44" height="28.7347" fill="white"/>
</clipPath>
</defs>
</svg>
