<svg xmlns="http://www.w3.org/2000/svg">
<path d="M10.8879 0C11.8037 0 12.6883 0.118056 13.5417 0.354167C14.3951 0.590278 15.1895 0.927083 15.925 1.36458C16.6604 1.80208 17.3334 2.32292 17.944 2.92708C18.5545 3.53125 19.0749 4.20486 19.505 4.94792C19.9352 5.69097 20.2717 6.48958 20.5145 7.34375C20.7574 8.19792 20.8788 9.08333 20.8788 10C20.8788 10.9167 20.7608 11.8021 20.5249 12.6562C20.289 13.5104 19.9525 14.3056 19.5154 15.0417C19.0783 15.7778 18.558 16.4514 17.9544 17.0625C17.3507 17.6736 16.6777 18.1944 15.9354 18.625C15.193 19.0556 14.3951 19.3924 13.5417 19.6354C12.6883 19.8785 11.8037 20 10.8879 20C9.97206 20 9.08745 19.8819 8.23406 19.6458C7.38067 19.4097 6.58626 19.0729 5.85082 18.6354C5.11538 18.1979 4.44238 17.6771 3.83183 17.0729C3.22127 16.4688 2.70091 15.7951 2.27075 15.0521C1.84059 14.309 1.50409 13.5139 1.26125 12.6667C1.01842 11.8194 0.897003 10.9306 0.897003 10C0.897003 9.08333 1.01495 8.19792 1.25085 7.34375C1.48674 6.48958 1.82324 5.69444 2.26034 4.95833C2.69744 4.22222 3.2178 3.54861 3.82142 2.9375C4.42504 2.32639 5.09803 1.80556 5.84041 1.375C6.58279 0.944444 7.3772 0.607639 8.22365 0.364583C9.0701 0.121528 9.95818 0 10.8879 0ZM10.8879 18.6667C11.6858 18.6667 12.4524 18.566 13.1879 18.3646C13.9233 18.1632 14.6137 17.8715 15.2589 17.4896C15.9041 17.1076 16.4869 16.6562 17.0073 16.1354C17.5277 15.6146 17.9786 15.0312 18.3602 14.3854C18.7418 13.7396 19.0332 13.0486 19.2344 12.3125C19.4356 11.5764 19.5397 10.8056 19.5467 10C19.5467 9.20139 19.4461 8.43403 19.2449 7.69792C19.0436 6.96181 18.7522 6.27083 18.3706 5.625C17.9891 4.97917 17.5381 4.39583 17.0177 3.875C16.4974 3.35417 15.9146 2.90278 15.2693 2.52083C14.6241 2.13889 13.9337 1.84722 13.1983 1.64583C12.4628 1.44444 11.6927 1.34028 10.8879 1.33333C10.09 1.33333 9.32335 1.43403 8.5879 1.63542C7.85246 1.83681 7.16212 2.12847 6.51688 2.51042C5.87163 2.89236 5.28883 3.34375 4.76847 3.86458C4.24811 4.38542 3.79714 4.96875 3.41554 5.61458C3.03394 6.26042 2.74254 6.95139 2.54134 7.6875C2.34013 8.42361 2.23606 9.19444 2.22912 10C2.22912 10.7986 2.32972 11.566 2.53093 12.3021C2.73213 13.0382 3.02354 13.7292 3.40513 14.375C3.78673 15.0208 4.23771 15.6042 4.75806 16.125C5.27842 16.6458 5.86123 17.0972 6.50647 17.4792C7.15171 17.8611 7.84206 18.1528 8.5775 18.3542C9.31294 18.5556 10.0831 18.6597 10.8879 18.6667ZM4.89336 9.33333H16.8824V10.6667H4.89336V9.33333Z" fill="black"/>
</svg>
