<svg xmlns="http://www.w3.org/2000/svg">
    <path d="M31.6769 4.70386H26.9889C26.8337 4.70376 26.6835 4.76002 26.5655 4.8625C26.4475 4.96499 26.3694 5.10695 26.3452 5.26283L24.4491 17.4856C24.4404 17.5423 24.4439 17.6003 24.4593 17.6555C24.4748 17.7107 24.5018 17.7619 24.5385 17.8055C24.5753 17.849 24.6209 17.884 24.6722 17.908C24.7235 17.9319 24.7793 17.9443 24.8358 17.9442H27.0739C27.2292 17.9443 27.3794 17.8879 27.4974 17.7853C27.6154 17.6827 27.6935 17.5405 27.7175 17.3845L28.2289 14.0879C28.2529 13.932 28.3309 13.7899 28.4488 13.6873C28.5667 13.5847 28.7167 13.5283 28.8719 13.5282H30.356C33.4441 13.5282 35.2263 12.0088 35.6918 8.99789C35.9015 7.68061 35.7007 6.64561 35.094 5.92077C34.4277 5.12483 33.246 4.70386 31.6769 4.70386ZM32.2177 9.16795C31.9614 10.8783 30.6761 10.8783 29.4333 10.8783H28.7259L29.2222 7.6841C29.2367 7.59065 29.2835 7.50554 29.3543 7.44408C29.425 7.38263 29.515 7.34886 29.6081 7.34886H29.9323C30.7789 7.34886 31.5775 7.34886 31.9902 7.83952C32.2362 8.13225 32.3116 8.56716 32.2177 9.16795ZM45.6902 9.11289H43.4453C43.3522 9.11289 43.2622 9.14666 43.1915 9.20811C43.1207 9.26957 43.0739 9.35468 43.0593 9.44813L42.96 10.0866L42.803 9.85516C42.317 9.13798 41.2332 8.89822 40.1515 8.89822C37.6708 8.89822 35.5519 10.8086 35.1393 13.4885C34.9247 14.8253 35.2297 16.1035 35.9756 16.9949C36.6597 17.8146 37.6385 18.1561 38.8032 18.1561C40.802 18.1561 41.9105 16.8492 41.9105 16.8492L41.8104 17.4835C41.8015 17.5402 41.8048 17.5982 41.82 17.6535C41.8353 17.7088 41.8621 17.7601 41.8987 17.8038C41.9353 17.8475 41.9809 17.8826 42.0321 17.9068C42.0834 17.9309 42.1392 17.9434 42.1956 17.9435H44.2178C44.3731 17.9436 44.5233 17.8872 44.6414 17.7846C44.7594 17.682 44.8375 17.5398 44.8615 17.3838L46.0748 9.57149C46.0837 9.51491 46.0805 9.45704 46.0652 9.40186C46.05 9.34669 46.0232 9.29553 45.9866 9.25192C45.9501 9.20832 45.9046 9.1733 45.8535 9.1493C45.8023 9.12529 45.7466 9.11287 45.6902 9.11289ZM42.561 13.5554C42.3444 14.8594 41.3264 15.7348 40.0281 15.7348C39.3762 15.7348 38.8553 15.5222 38.5208 15.1194C38.189 14.7193 38.0629 14.1499 38.1684 13.5156C38.3706 12.2228 39.4057 11.3188 40.6841 11.3188C41.3216 11.3188 41.8399 11.5342 42.1812 11.9405C42.5233 12.351 42.659 12.9239 42.561 13.5554ZM57.6464 9.11289H55.3905C55.2841 9.11306 55.1794 9.13962 55.0854 9.19027C54.9914 9.24091 54.9109 9.31412 54.851 9.40352L51.7396 14.0635L50.4208 9.58543C50.3803 9.44885 50.2976 9.32916 50.185 9.24405C50.0724 9.15895 49.9359 9.11296 49.7956 9.11289H47.5787C47.5165 9.11272 47.4551 9.12767 47.3997 9.15648C47.3443 9.1853 47.2965 9.22715 47.2602 9.27856C47.224 9.32997 47.2003 9.38944 47.1912 9.45203C47.1821 9.51462 47.1878 9.57852 47.2079 9.6384L49.6928 17.0528L47.3566 20.4059C47.3151 20.4653 47.2905 20.5353 47.2855 20.608C47.2804 20.6807 47.2952 20.7535 47.3281 20.8182C47.361 20.883 47.4108 20.9373 47.4721 20.9752C47.5333 21.0132 47.6037 21.0332 47.6754 21.0332H49.9286C50.0338 21.0333 50.1374 21.0075 50.2307 20.958C50.3239 20.9085 50.404 20.8367 50.4639 20.7488L57.9673 9.73668C58.0079 9.6771 58.0318 9.60734 58.0362 9.53496C58.0407 9.46258 58.0256 9.39034 57.9925 9.32607C57.9595 9.26181 57.9097 9.20797 57.8487 9.17039C57.7877 9.13281 57.7178 9.11292 57.6464 9.11289Z" fill="#253B80"/>
    <path d="M65.1155 4.70385H60.4268C60.2717 4.70392 60.1217 4.76025 60.0038 4.86272C59.886 4.96519 59.8079 5.10707 59.7838 5.26282L57.8877 17.4856C57.8789 17.5422 57.8823 17.6001 57.8976 17.6553C57.9129 17.7104 57.9398 17.7616 57.9764 17.8052C58.013 17.8488 58.0585 17.8838 58.1097 17.9078C58.1609 17.9318 58.2166 17.9442 58.273 17.9442H60.679C60.7876 17.944 60.8925 17.9045 60.9749 17.8327C61.0574 17.7609 61.1119 17.6615 61.1287 17.5525L61.6668 14.0879C61.6908 13.932 61.7688 13.7899 61.8867 13.6873C62.0046 13.5847 62.1546 13.5283 62.3098 13.5282H63.7932C66.882 13.5282 68.6635 12.0088 69.1297 8.99788C69.3401 7.68061 69.1379 6.64561 68.5312 5.92076C67.8656 5.12482 66.6845 4.70385 65.1155 4.70385ZM65.6563 9.16794C65.4006 10.8783 64.1154 10.8783 62.8719 10.8783H62.1652L62.6621 7.68409C62.6764 7.59064 62.7231 7.50546 62.7937 7.44397C62.8644 7.38248 62.9544 7.34874 63.0474 7.34885H63.3716C64.2175 7.34885 65.0168 7.34885 65.4294 7.83952C65.6755 8.13225 65.7502 8.56716 65.6563 9.16794ZM79.1281 9.11288H76.8846C76.7915 9.11262 76.7014 9.14631 76.6308 9.20783C76.5601 9.26935 76.5134 9.35461 76.4993 9.44812L76.3999 10.0865L76.2423 9.85516C75.7562 9.13797 74.6732 8.89822 73.5915 8.89822C71.1107 8.89822 68.9926 10.8086 68.5799 13.4885C68.366 14.8252 68.6697 16.1035 69.4155 16.9949C70.101 17.8146 71.0785 18.1561 72.2431 18.1561C74.242 18.1561 75.3504 16.8492 75.3504 16.8492L75.2504 17.4835C75.2414 17.5403 75.2447 17.5984 75.2601 17.6538C75.2754 17.7092 75.3024 17.7606 75.3391 17.8043C75.3759 17.8481 75.4216 17.8832 75.473 17.9072C75.5244 17.9312 75.5804 17.9436 75.637 17.9435H77.6585C77.8136 17.9434 77.9637 17.887 78.0816 17.7844C78.1995 17.6817 78.2774 17.5397 78.3014 17.3838L79.5154 9.57149C79.524 9.51473 79.5205 9.45675 79.505 9.40153C79.4894 9.34631 79.4624 9.29516 79.4256 9.25159C79.3888 9.20802 79.3431 9.17307 79.2918 9.14912C79.2404 9.12518 79.1846 9.11282 79.1281 9.11288ZM75.9989 13.5554C75.7837 14.8594 74.7644 15.7348 73.466 15.7348C72.8155 15.7348 72.2932 15.5222 71.9587 15.1194C71.6269 14.7193 71.5021 14.1499 71.6063 13.5156C71.8099 12.2228 72.8436 11.3188 74.122 11.3188C74.7596 11.3188 75.2778 11.5342 75.6192 11.9405C75.9626 12.351 76.0983 12.9239 75.9989 13.5554ZM81.7748 5.03909L79.8506 17.4856C79.8418 17.5422 79.8452 17.6001 79.8605 17.6553C79.8758 17.7104 79.9027 17.7616 79.9393 17.8052C79.9759 17.8488 80.0214 17.8838 80.0726 17.9078C80.1238 17.9318 80.1795 17.9442 80.2359 17.9442H82.1703C82.4918 17.9442 82.7646 17.7072 82.814 17.3845L84.7114 5.16246C84.7202 5.1058 84.7169 5.04788 84.7016 4.99268C84.6863 4.93747 84.6594 4.88628 84.6228 4.84264C84.5862 4.799 84.5407 4.76393 84.4895 4.73986C84.4383 4.71578 84.3826 4.70326 84.3262 4.70316H82.16C82.067 4.70349 81.9772 4.73748 81.9066 4.79904C81.836 4.86059 81.7893 4.9457 81.7748 5.03909Z" fill="#179BD7"/>
    <path d="M4.98072 20.3195L5.33923 18.0041L4.54064 17.9853H0.727295L3.37738 0.90049C3.38527 0.848288 3.41134 0.800707 3.45085 0.76642C3.49036 0.732133 3.54067 0.713424 3.59262 0.713702H10.0225C12.1571 0.713702 13.6302 1.16534 14.3993 2.05676C14.7598 2.47494 14.9895 2.91195 15.1005 3.39285C15.2171 3.89746 15.2191 4.50034 15.1053 5.23564L15.0971 5.28931V5.76046L15.4577 5.96816C15.7329 6.10995 15.9803 6.30175 16.1877 6.5341C16.4962 6.89164 16.6956 7.34607 16.78 7.88482C16.867 8.43892 16.8382 9.09825 16.6956 9.8447C16.5311 10.7034 16.2652 11.4512 15.906 12.0632C15.589 12.6114 15.1629 13.0862 14.655 13.4571C14.1779 13.8014 13.611 14.0628 12.97 14.23C12.349 14.3945 11.6409 14.4775 10.8642 14.4775H10.3638C10.006 14.4775 9.65846 14.6085 9.38564 14.8434C9.11321 15.0808 8.93248 15.4087 8.87564 15.7689L8.83794 15.9773L8.20455 20.0581L8.17576 20.2079C8.16822 20.2553 8.1552 20.279 8.136 20.2951C8.11741 20.3105 8.09421 20.3191 8.0702 20.3195H4.98072Z" fill="#253B80"/>
    <path d="M15.799 5.34367C15.7798 5.46843 15.7579 5.59598 15.7332 5.72701C14.8853 10.1535 11.9843 11.6826 8.27926 11.6826H6.39281C5.93971 11.6826 5.55789 12.0172 5.48729 12.4716L4.52144 18.6997L4.24793 20.4651C4.23704 20.5352 4.2412 20.6068 4.26012 20.675C4.27905 20.7432 4.3123 20.8065 4.35758 20.8604C4.40286 20.9143 4.45909 20.9576 4.5224 20.9873C4.58572 21.017 4.65461 21.0324 4.72434 21.0325H8.07019C8.4664 21.0325 8.80297 20.7397 8.86535 20.3425L8.89825 20.1696L9.52821 16.1049L9.56866 15.8819C9.63035 15.4832 9.96761 15.1905 10.3638 15.1905H10.8642C14.1059 15.1905 16.6435 13.8523 17.3852 9.97992C17.6951 8.36225 17.5347 7.01152 16.7148 6.06155C16.455 5.76768 16.1446 5.52442 15.799 5.34367Z" fill="#179BD7"/>
    <path d="M14.912 4.98403C14.6413 4.9044 14.3658 4.84225 14.0874 4.79794C13.5372 4.71197 12.9811 4.67071 12.4244 4.67458H7.38472C7.19293 4.67443 7.00741 4.74405 6.8617 4.87085C6.71599 4.99766 6.6197 5.17328 6.59025 5.36597L5.51815 12.2702L5.4873 12.4716C5.5207 12.2518 5.63037 12.0514 5.79646 11.9067C5.96255 11.762 6.1741 11.6825 6.39283 11.6826H8.27928C11.9843 11.6826 14.8853 10.1528 15.7332 5.727C15.7586 5.59597 15.7798 5.46843 15.799 5.34367C15.5753 5.22437 15.3421 5.12435 15.1019 5.04467C15.0389 5.02343 14.9756 5.00321 14.912 4.98403Z" fill="#222D65"/>
    <path d="M6.59024 5.36597C6.61945 5.17322 6.71568 4.99752 6.86147 4.87078C7.00725 4.74404 7.19291 4.67467 7.38472 4.67527H12.4244C13.0215 4.67527 13.5788 4.715 14.0874 4.79864C14.4316 4.85364 14.771 4.9359 15.1026 5.04467C15.3528 5.129 15.5852 5.22867 15.7997 5.34367C16.052 3.70788 15.7977 2.59412 14.9278 1.58561C13.9688 0.475333 12.2379 0 10.0231 0H3.59331C3.14089 0 2.75496 0.334545 2.68504 0.789667L0.00685398 18.0501C-0.00562056 18.1303 -0.000874421 18.2122 0.0207659 18.2903C0.0424063 18.3684 0.0804272 18.4408 0.132213 18.5025C0.184 18.5642 0.248322 18.6138 0.320756 18.6479C0.39319 18.6819 0.472017 18.6996 0.551814 18.6997H4.52145L5.51814 12.2702L6.59024 5.36597Z" fill="#253B80"/>
</svg>
