<svg xmlns="http://www.w3.org/2000/svg">
<path d="M15.75 0C16.5078 0 17.2383 0.0976563 17.9414 0.292969C18.6445 0.488281 19.3008 0.765625 19.9102 1.125C20.5195 1.48438 21.0742 1.91406 21.5742 2.41406C22.0742 2.91406 22.5078 3.47266 22.875 4.08984C23.2422 4.70703 23.5195 5.36328 23.707 6.05859C23.8945 6.75391 23.9922 7.48438 24 8.25C24 9.00781 23.9023 9.73828 23.707 10.4414C23.5117 11.1445 23.2344 11.8008 22.875 12.4102C22.5156 13.0195 22.0859 13.5742 21.5859 14.0742C21.0859 14.5742 20.5273 15.0078 19.9102 15.375C19.293 15.7422 18.6367 16.0195 17.9414 16.207C17.2461 16.3945 16.5156 16.4922 15.75 16.5C14.7734 16.5 13.8398 16.3359 12.9492 16.0078C12.0586 15.6797 11.2344 15.207 10.4766 14.5898L1.27734 23.7773C1.12891 23.9258 0.953125 24 0.75 24C0.546875 24 0.371094 23.9258 0.222656 23.7773C0.0742188 23.6289 0 23.4531 0 23.25C0 23.0469 0.0742188 22.8711 0.222656 22.7227L9.41016 13.5234C8.79297 12.7734 8.32031 11.9531 7.99219 11.0625C7.66406 10.1719 7.5 9.23438 7.5 8.25C7.5 7.49219 7.59766 6.76172 7.79297 6.05859C7.98828 5.35547 8.26562 4.69922 8.625 4.08984C8.98438 3.48047 9.41406 2.92578 9.91406 2.42578C10.4141 1.92578 10.9727 1.49219 11.5898 1.125C12.207 0.757812 12.8633 0.480469 13.5586 0.292969C14.2539 0.105469 14.9844 0.0078125 15.75 0ZM15.75 15C16.6797 15 17.5547 14.8242 18.375 14.4727C19.1953 14.1211 19.9102 13.6367 20.5195 13.0195C21.1289 12.4023 21.6094 11.6875 21.9609 10.875C22.3125 10.0625 22.4922 9.1875 22.5 8.25C22.5 7.32031 22.3242 6.44531 21.9727 5.625C21.6211 4.80469 21.1367 4.08984 20.5195 3.48047C19.9023 2.87109 19.1875 2.39062 18.375 2.03906C17.5625 1.6875 16.6875 1.50781 15.75 1.5C14.8203 1.5 13.9453 1.67578 13.125 2.02734C12.3047 2.37891 11.5898 2.86328 10.9805 3.48047C10.3711 4.09766 9.89062 4.8125 9.53906 5.625C9.1875 6.4375 9.00781 7.3125 9 8.25C9 9.17969 9.17578 10.0547 9.52734 10.875C9.87891 11.6953 10.3633 12.4102 10.9805 13.0195C11.5977 13.6289 12.3125 14.1094 13.125 14.4609C13.9375 14.8125 14.8125 14.9922 15.75 15Z" fill="black"/>
</svg>
